<?xml version="1.0" encoding="UTF-8" standalone="no"?>
<svg
   xmlns:dc="http://purl.org/dc/elements/1.1/"
   xmlns:cc="http://creativecommons.org/ns#"
   xmlns:rdf="http://www.w3.org/1999/02/22-rdf-syntax-ns#"
   xmlns:svg="http://www.w3.org/2000/svg"
   xmlns="http://www.w3.org/2000/svg"
   viewBox="0 0 951.41333 325.98666"
   height="325.98666"
   width="951.41333"
   xml:space="preserve"
   id="svg2"
   version="1.1"><metadata
     id="metadata8"><rdf:RDF><cc:Work
         rdf:about=""><dc:format>image/svg+xml</dc:format><dc:type
           rdf:resource="http://purl.org/dc/dcmitype/StillImage" /></cc:Work></rdf:RDF></metadata><defs
     id="defs6" /><g
     transform="matrix(1.3333333,0,0,-1.3333333,0,325.98667)"
     id="g10"><g
       transform="scale(0.1)"
       id="g12"><path
         id="path14"
         style="fill:#257135;fill-opacity:1;fill-rule:nonzero;stroke:none"
         d="m 1573.97,1359.35 c -17.09,2.25 -33.28,4.37 -49.46,6.5 -0.29,-0.76 -0.58,-1.52 -0.87,-2.28 9.6,-8.84 19.2,-17.69 29.64,-27.31 7.01,7.82 13.18,14.71 20.69,23.09 z m -305.73,-148.87 c 7.11,12.48 13.06,22.9 20.7,36.3 -16.04,0.9 -29.38,1.64 -45.65,2.54 9.09,-14.15 16.42,-25.56 24.95,-38.84 z m 415.49,1081.27 c 16.94,-12.85 32.33,-24.83 48.18,-36.16 1.95,-1.38 8.29,-0.41 9.42,1.42 19.25,31.35 21.9,81.96 -15.85,109.24 -14.4,10.39 -30.65,17.2 -49.93,6.43 13.62,-26.62 17.18,-53.84 8.18,-80.93 z m -570.29,1.8 c -5.39,9.19 -9.14,17.49 -14.55,24.5 -36.19,46.99 -107.722,53.21 -141.117,-9.25 -4.503,-8.42 -3.835,-14.65 3.344,-21.69 10.488,-10.28 20.16,-21.51 29.238,-33.08 4.493,-5.71 7.274,-6.71 13.855,-2.85 11.26,6.58 23.09,12.52 35.31,17.06 23.7,8.81 47.84,16.46 73.92,25.31 z M 930.219,327.25 c 11.543,-5.328 25.609,-15.551 40.933,-18.031 24.043,-3.891 48.998,-4.071 73.438,-2.969 19.19,0.859 38.17,6.039 60.2,9.801 -18.24,17.168 -42.26,24.211 -45.74,50.051 14.5,4.57 25.95,-1.262 36.92,-8.801 10.8,-7.422 21.35,-15.211 32.23,-22.492 2.83,-1.899 7.5,-4.5 9.65,-3.43 22.84,11.332 45.34,23.34 67.94,35.172 -0.26,1.328 -0.52,2.66 -0.78,4 -10.78,4.711 -21.23,10.449 -32.38,13.918 -35.87,11.14 -71.71,22.601 -108.13,31.66 -24.31,6.043 -39.42,19.992 -48.43,42.25 -0.77,1.902 -1.98,3.621 -2.7,5.519 -2.51,6.661 -6.33,8.582 -13.29,5.403 -13.025,-5.949 -26.572,-10.781 -39.443,-17.031 -3.028,-1.469 -5.535,-6.54 -5.996,-10.25 -1.161,-9.301 0.461,-19.122 -1.668,-28.09 -6.547,-27.649 -14.328,-55 -22.754,-86.68 z M 1077.8,1342.92 c 47.1,-8.34 87.57,-29.75 124.89,-57.94 2.54,-1.9 5.6,-4.38 8.44,-4.41 25.18,-0.35 50.36,-0.21 76.79,-0.21 -38.95,85.94 -101.54,153.29 -157.94,224.95 -30.43,-25.58 -55.82,-103.59 -52.18,-162.39 z m 490.2,-81.28 c -39.41,86.97 -203.8,161.11 -283.36,127.17 1.83,-3.19 3.65,-6.27 5.4,-9.38 16.22,-28.93 32.95,-57.6 48.35,-86.96 4.8,-9.16 10.29,-14.09 20.31,-16.71 51.65,-13.53 92.66,-42.16 121.2,-87.81 1.75,-2.8 4.21,-5.16 7.5,-9.13 7.47,49.39 -8.67,93.04 -18.98,138.98 6.83,-1.81 13.51,-4.08 17,-8.73 8.32,-11.05 15,-23.32 22.63,-34.92 2.07,-3.14 4.89,-7.73 7.79,-8.08 17.3,-2.06 34.72,-3.07 52.16,-4.43 z m -254.31,-39.97 c -7.72,-12.19 -13.83,-23.4 -21.51,-33.38 -4.77,-6.2 -4.33,-10.4 -1.39,-17.22 22.56,-52.33 42.05,-105.69 48.68,-162.75 0.76,-6.56 -0.75,-13.781 -2.86,-20.16 -1.98,-5.969 -6.08,-7.582 -12.21,-2.601 -19.69,16.061 -39.67,31.771 -59.96,47.071 -11.32,8.55 -23.44,16.02 -34.99,23.82 -1.66,-1.75 -2.47,-2.25 -2.73,-2.94 -0.71,-1.9 -1.18,-3.9 -1.75,-5.85 -10.31,-35.1 -27.09,-66.781 -51.37,-94.121 -6.67,-7.508 -15.77,-12.848 -23.97,-19.359 -19.18,46.461 -15.87,96 -39.39,138.38 26.24,-202.388 -36.68,-372.029 -182.377,-511.861 7.403,-21.488 15.215,-44.16 23.075,-66.949 0.351,0.02 1.214,-0.141 1.878,0.148 83.594,36.383 163.774,78.93 238.784,130.993 78.43,54.429 129,127.968 153.06,220.168 15.06,57.722 18.2,116.421 15.76,175.671 -2.83,69.15 -20.5,134.84 -46.73,200.94 z m -928.553,188.64 c 50.062,-24.37 100.156,-48.76 154.441,-75.18 -41.523,-31.9 -80.273,-61.66 -120.348,-92.45 44.676,-32.1 88.731,-63.77 136.133,-97.84 -38.945,-24.6 -75.73,-47.84 -113.097,-71.45 1.32,-1.65 2.953,-3.89 4.804,-5.95 26.918,-29.84 53.934,-59.59 80.754,-89.53 7.41,-8.262 15.793,-17.051 10.227,-29.332 -5.488,-12.109 -18.078,-10.867 -28.75,-12.547 -3.203,-0.511 -6.547,-0.133 -9.828,-0.172 -19.688,-0.257 -39.375,-0.589 -59.063,-0.769 -13.297,-0.121 -26.597,-0.031 -39.773,-0.031 0,-5.09 -0.282,-7.18 0.039,-9.168 6.183,-37.969 12.929,-75.852 18.359,-113.922 1.641,-11.5 0.313,-23.578 -0.898,-35.27 -0.754,-7.34 -5.207,-10.719 -13.035,-6.168 -10.969,6.367 -22.426,11.899 -33.332,18.36 -14.36,8.539 -28.379,17.629 -43.114,26.828 -1.879,-4.059 -3.207,-6.989 -4.593,-9.891 -9,-18.816 -17.336,-38.019 -27.204,-56.387 -10.851,-20.191 -17.191,-21.75 -36.879,-11.089 -6.035,3.269 -11.433,7.867 -16.73,12.328 -17.562,14.781 -34.945,29.789 -52.48,44.781 -26.016,-13.32 -57.34,-29.34 -89.77,-45.93 78.875,-53.832 164.32,-76.32 257.484,-59.761 210.407,37.41 322.336,240.46 301.821,412.27 -8.496,71.14 -27.25,139.74 -52,206.82 -29.34,79.5 -60.739,158.33 -87.5,238.7 -35.754,107.39 -50.367,217.85 -34.16,330.88 8.91,62.14 26.097,121.72 60.921,174.99 1.86,2.85 3.516,5.84 6.633,11.03 -50.344,-10.38 -98.094,-20.23 -146.347,-30.18 4.148,-10.57 7.707,-19.29 11,-28.09 12.031,-32.2 24.023,-64.4 35.918,-96.64 3.445,-9.35 2.074,-16.48 -8.633,-20.54 -17.942,-6.81 -35.594,-14.38 -53.321,-21.74 -11.992,-4.98 -23.902,-10.16 -37.101,-15.79 21.551,-35.39 42.371,-69.2 62.711,-103.29 5.199,-8.72 9.515,-18.12 12.91,-27.67 1.086,-3.06 -0.918,-8.98 -3.535,-11.28 -12.016,-10.51 -24.727,-20.24 -37.227,-30.19 -18.789,-14.96 -37.605,-29.87 -56.816,-45.13 5,-4.9 8.984,-9.01 13.18,-12.89 29.515,-27.28 59.492,-54.08 88.503,-81.88 27.723,-26.57 26.278,-25.59 6.504,-54.64 -16.992,-24.96 -36.66,-48.1 -56.808,-74.2 z m 569.758,223.73 c 3.824,18.11 12.355,22.38 28.843,15.01 10.461,-4.67 21.092,-9.02 31.882,-12.85 84.94,-30.24 172.82,-47.31 262.12,-57.53 95.86,-10.97 192.2,-12.28 288.54,-12.47 5.16,-0.01 12.7,3.21 15.09,7.29 12.56,21.44 24.52,43.31 35.06,65.8 2.75,5.86 2.01,15.59 -1.03,21.57 -15.02,29.6 -31.31,58.56 -47.26,87.68 -1.41,2.58 -3.59,4.73 -5.26,6.88 -25.42,-50.52 -50.38,-100.14 -77.22,-153.49 -8.39,13.01 -16.12,22.89 -21.59,33.89 -15.88,31.93 -30.35,64.57 -46.34,96.43 -11.14,22.2 -23.89,43.59 -37.02,67.32 -42.89,-47.2 -80.47,-96.64 -130.85,-135.05 -35.38,55.5 -70.74,110.97 -107.13,168.06 -46.96,-35.98 -94.91,-67.46 -150.222,-92.34 -10,52.58 -19.727,103.72 -29.078,152.87 -44.231,-29.56 -89.985,-60.14 -136.75,-91.41 -8.453,14.83 -15.289,26.82 -22.129,38.8 -5.27,11.07 -10.914,21.98 -15.715,33.25 -5.113,12.02 -10.375,24.11 -13.75,36.66 -2.211,8.23 -1.863,18.08 8.691,21.7 9.848,3.37 17.657,-0.99 23.176,-9.32 4.52,-6.83 8.797,-13.82 12.914,-20.9 7.946,-13.68 15.699,-27.47 23.66,-41.44 2.922,1.48 4.52,1.99 5.739,2.96 28.851,22.94 57.406,46.28 86.609,68.77 13.523,10.42 28.035,19.65 42.609,28.58 7.465,4.57 12.297,2.29 14.235,-7.54 6.48,-32.89 13.761,-65.62 20.911,-98.37 3.6,-16.47 7.58,-32.85 11.7,-50.57 5.46,3.71 8.95,5.85 12.19,8.31 33.99,25.68 68.12,51.18 101.79,77.28 8.53,6.6 13.67,7.52 20.54,-2.39 23.78,-34.33 48.64,-67.9 72.59,-102.12 11.18,-15.99 21.19,-32.81 32.18,-49.95 2.36,2.07 4.05,3.16 5.26,4.65 19.71,24.09 39.06,48.47 59.12,72.26 12.4,14.72 25.45,28.93 38.98,42.61 5.56,5.61 13.19,11.75 20.94,2.34 15.61,-18.94 32.63,-37.03 45.87,-57.53 16.86,-26.09 30.57,-54.22 45.62,-81.48 2.11,-3.81 4.12,-7.68 7.09,-13.23 2.73,4.99 4.71,8.02 6.11,11.29 14.86,34.63 29.78,69.24 44.34,104 7.32,17.5 18.87,21.34 33.22,8.86 6.91,-6.01 12.55,-14.12 17.01,-22.24 19.92,-36.29 39.23,-72.92 58.73,-109.44 5.78,-10.83 12.7,-13.44 24.28,-8.29 12.36,5.5 24.68,11.13 36.69,17.32 77.37,39.88 114.28,105.22 117.87,190.47 2.63,62.26 -9.35,122.31 -32.65,179.95 -23.04,57.02 -51.01,111.21 -97.92,152.88 -15.7,13.95 -31.1,29.43 -54.41,30.7 -1.96,0.11 -5.37,4.92 -5.21,7.36 0.79,12.49 2.72,24.89 3.85,37.37 0.87,9.58 3.39,19.73 1.31,28.73 -11.88,51.35 -61.45,78.18 -110.88,60.16 -34.77,-12.68 -55.45,-39.01 -67.97,-73.06 -2.29,-6.22 -7.73,-14.03 -13.36,-15.77 -18.23,-5.64 -37.04,-10.3 -55.96,-12.57 -32.48,-3.89 -65.66,-3.16 -97.73,-8.91 -67.57,-12.13 -134.78,-26.4 -201.76,-41.44 -26.91,-6.04 -52.86,-16.42 -79.76,-24.98 3.46,-13.97 7.23,-25.28 8.84,-36.88 1.55,-11.2 5.59,-23.5 -3.72,-33.85 -23.565,29.7 -46.229,58.07 -68.674,86.62 -28.73,36.53 -62.918,65.95 -108.156,79.57 -38.133,11.48 -74.36,9.88 -105.145,-20.18 -34.539,-33.74 -40.699,-75.59 -34.101,-120.36 4.773,-32.41 17.367,-62.11 37.859,-88.27 7.867,-10.04 6.66,-21.18 -0.992,-27.73 -7.824,-6.71 -18.059,-5.96 -26.984,4.43 -10.598,12.32 -19.875,25.84 -29.09,39.28 -3.996,5.83 -6.41,12.75 -9.934,19.97 -3.719,-3.34 -6.398,-5.8 -9.129,-8.21 -2.761,-2.43 -5.605,-4.79 -8.351,-7.24 -49.078,-43.73 -85.684,-95.54 -104.43,-159.28 -27.324,-92.92 -25.949,-186.82 -8.707,-280.88 14.824,-80.89 42.113,-158.21 72.57,-234.36 32.098,-80.27 64.438,-160.42 82.16,-245.48 11.219,-53.81 19.895,-107.74 13.918,-163.15 C 702.977,944.871 678.813,873.551 633.285,811.922 539.504,684.969 415.004,620.828 254.398,638.109 c -70.011,7.532 -133.062,33.43 -189.2183,75.95 -7.3633,5.57 -14.5547,11.382 -21.8203,17.082 -0.9883,-0.493 -1.9688,-0.981 -2.9492,-1.469 C 43.9648,709.781 46.957,689.762 51.1719,670 67.8516,591.801 105.75,526.922 170.344,478.109 221.77,439.25 279.191,415.301 342.063,402.762 c 84.304,-16.821 167.691,-15.492 249.777,11.527 24.539,8.09 24.16,4.25 14.609,30.191 -11.41,31 -25.722,60.942 -39.125,92.149 5.332,7.711 13.86,10.633 22.742,5.562 9.75,-5.562 20.649,-11.562 26.934,-20.332 35.629,-49.687 49.781,-106.519 48.664,-166.789 -0.781,-41.91 -8.394,-83.019 -26.281,-121.66 -1.215,-2.621 0.715,-9.359 3.047,-10.558 17.367,-8.961 34.457,-19.832 53.05,-24.774 43.122,-11.449 87.372,-11.937 131.438,-4.808 15.465,2.5 30.613,6.941 48.227,11.039 -5.219,5.531 -8.184,8.82 -11.309,11.953 -12.457,12.476 -25.898,24.16 -37,37.75 -4.629,5.66 -8.418,19.047 -5.367,22.457 6.082,6.801 15.258,0.551 21.187,-5.207 16.446,-15.961 32.188,-32.66 48.809,-48.434 2.91,-2.769 10.402,-4.848 13,-3.109 17.219,11.543 33.672,24.211 53.73,38.992 -34.203,21.75 -65.34,41.559 -97.011,61.699 0.902,1.641 2.105,4.731 4.035,7.262 30.289,39.719 44.996,83.769 40.484,134.308 -3.547,39.7 -13.488,76.661 -39.121,107.942 -12.711,15.5 -26.66,29.988 -39.953,45.019 -6.797,7.668 -10.289,16.18 -3.289,25.45 6.578,8.738 15.43,8.57 24.265,4.121 5.813,-2.934 11.618,-6.332 16.477,-10.602 15.926,-13.98 31.418,-28.469 48.047,-43.64 0.851,0.742 4.203,3.609 7.465,6.57 41.472,37.699 72.371,83.379 99.556,131.871 36.84,65.719 57.87,136.258 63.17,211.277 4,56.672 -2.57,112.892 -10.51,168.892 -1.15,8.15 -2.67,19.01 -8.16,23.31 -32.1,25.06 -66.455,46.46 -107.162,55.23 -17.828,3.83 -35.519,8.29 -57.457,13.46 6.735,6.3 10.239,11.15 14.981,13.75 19.34,10.64 39.902,7.1 59.992,3.06 31.766,-6.37 60.146,-21.26 87.716,-37.59 56.31,-33.35 93.87,-80.83 108.06,-145.55 1.14,-5.17 1.85,-10.43 2.76,-15.65 1.35,-0.21 2.7,-0.42 4.04,-0.63 6.43,18.82 14.86,37.23 18.78,56.57 5.27,25.95 6.99,52.62 10.42,78.95 0.39,2.95 2.01,5.74 3.05,8.6 3.45,-1.67 7.69,-2.61 10.16,-5.21 2.66,-2.83 4.47,-7.05 5.28,-10.96 3.01,-14.36 5.34,-28.86 8.22,-43.26 0.64,-3.25 1.59,-7.94 3.87,-9.11 16.24,-8.39 32.87,-16.04 49.89,-24.17 0,2.5 0.52,4.98 -0.08,7.15 -17.73,64.54 -47.01,122.27 -98.86,166.56 -74.06,63.25 -156.14,85.12 -249.751,48.76 -3.762,-1.46 -11.735,-0.66 -12.852,1.56 -1.98,3.92 -2.086,11.19 0.418,14.46 4.828,6.32 11.348,12.05 18.344,15.86 27.98,15.24 58.571,20.44 90.041,20.66 8.97,0.06 11.69,2.99 12.4,12.01 1.62,20.75 3.21,41.74 7.75,61.97 10.05,44.85 25.03,87.55 65.04,116.78 -0.5,3.41 -2.06,7.54 -1.51,11.37 1.91,13.26 -5.22,16.63 -16.63,20.04 -33.31,9.97 -66.34,21.03 -98.96,33.08 -18.405,6.8 -36.147,15.89 -46.705,34.1 z m 617.565,810.88 c 15.71,-5.2 32.18,-8.83 46.89,-16.05 13.75,-6.74 25.61,-17.3 39.4,-26.96 27.62,21.1 58.45,20.77 88.76,2.47 35.43,-21.39 52.13,-54.48 54.12,-95.25 1.58,-32.41 -9,-61.34 -26.84,-87.8 -3.82,-5.66 -3.89,-9.23 0.14,-15 50.8,-72.66 84.93,-152.09 96.83,-240.48 7.14,-53.1 5.79,-105.53 -11.92,-156.66 -28.26,-81.61 -87.49,-131.52 -166.04,-161.49 -8.78,-3.34 -17.84,-6.17 -26.15,-10.45 -3.25,-1.66 -5.77,-6.37 -6.93,-10.2 -11.18,-36.68 -24.56,-72.25 -51.62,-100.62 -3.68,-3.86 -10.2,-6.96 -15.46,-7.05 -139.15,-2.38 -277.84,2.26 -414.94,29.24 -3.49,0.68 -7.1,0.81 -14.71,1.65 9.27,-14.92 15.89,-28.02 24.75,-39.37 22.45,-28.76 45.74,-56.87 69.19,-84.83 2.34,-2.79 8.73,-4.76 12.17,-3.69 67.14,20.92 131.01,8.85 193.75,-17.83 7.96,-3.39 17,-5.01 25.69,-5.74 37.14,-3.13 74.34,-5.6 111.51,-8.37 2.43,-0.18 4.85,-0.79 7.25,-1.33 21.21,-4.8 27.1,-22.74 11.87,-38.44 -13.67,-14.07 -28.48,-27.04 -43.28,-40.94 12.51,-16.84 25.15,-33.28 37.11,-50.18 7.08,-10.01 13.32,-20.63 19.48,-31.25 2.43,-4.16 4.43,-8.92 5.22,-13.64 2.05,-12.19 -1.25,-14.19 -13.14,-10.67 -34.05,10.06 -68.26,19.61 -104.63,30 2.26,-48.87 1.79,-94.25 -27.09,-137.36 -14.73,21.58 -29.22,39.79 -40.41,59.86 -17.76,31.84 -41.82,56.44 -73.88,73.43 -3.25,1.72 -6.65,3.17 -10.03,4.64 -1.46,0.63 -3.07,0.98 -6.72,2.1 1.24,-4.54 1.85,-7.82 3.02,-10.87 21.56,-56.12 37.59,-113.74 42.61,-173.74 10.29,-122.991 -5.84,-240.609 -74.66,-346.71 -37.69,-58.11 -89.95,-100.762 -148.04,-136.449 -44.63,-27.422 -90.74,-52.442 -137.91,-79.512 6.93,-10.418 14.41,-22.367 22.78,-33.66 1.63,-2.199 6.64,-2.278 10.16,-2.617 55.64,-5.383 109.16,-18.372 157.82,-46.692 13.78,-8.012 25.33,-19.82 38.93,-30.719 -22.73,-23.492 -40.2,-46.832 -66.43,-61.281 -48.52,-26.75 -98.64,-49.531 -154.96,-50.66 -27.76,-0.539 -51.16,-3.219 -61.147,-33.5 -36.629,-41.672 -81.985,-68.719 -136.078,-80.98 -59.145,-13.399 -118.165,-11.731 -176.446,4.23 -37.152,10.172 -68.34,30.898 -94.508,59.379 -5.644,6.152 -6.769,10.762 -2.843,18.141 20.738,38.968 32.211,80.531 33.343,124.789 0.114,4.382 0.016,8.761 0.016,13.281 -25.086,-6.141 -48.914,-13.82 -73.348,-17.641 -145.8,-22.828 -282.586,-2.73 -403.836,87.832 C 60.3789,499.699 18.9453,582.469 3.71094,680.59 c -7.42188,47.82 -2.80469,94.75 5.89844,141.68 0.64452,3.46 1.95702,6.789 3.23442,11.109 15.8945,-16.758 31.3554,-32.367 45.9492,-48.738 7.5586,-8.481 14.0898,-9.879 24.0664,-3.653 19.7886,12.383 39.9176,24.391 60.7186,34.942 15.18,7.699 31.637,12.922 47.586,19.07 7.258,2.801 12.828,0.602 18.43,-5.078 18.109,-18.363 36.812,-36.152 55.961,-54.801 16.133,28.949 32.316,57.988 48.941,87.809 21.207,-12.559 40.484,-23.981 61.871,-36.66 -5.383,47.609 -10.578,93.558 -16.004,141.558 39.367,0 78.375,0 121.145,0 -35.059,43.062 -67.914,83.422 -99.082,121.722 33.883,16.63 68.461,33.59 104.586,51.32 -44.293,35.76 -86.824,70.1 -130.254,105.16 38.246,26.14 75.183,51.39 111.125,75.95 -46.262,29.37 -92.598,58.77 -139.57,88.59 30.183,33.51 58.39,64.82 87.011,96.59 -46.418,44.03 -92.851,86.2 -129.91,139.86 32.84,24.51 65.555,48.92 97.899,73.06 -26.547,49.33 -53.27,98.97 -81.317,151.08 38.746,15.62 75.317,30.37 112.692,45.44 -20.067,48.11 -40.348,96.77 -61.243,146.9 23.965,5.76 47.473,12.59 71.426,16.91 53.957,9.75 108.149,18.16 162.184,27.45 4.039,0.7 8.035,3.63 11.308,6.39 19.09,16.14 38.239,32.24 56.649,49.13 3.269,3 4.801,9.82 4.375,14.62 -3.578,40.26 1.648,78.36 23.34,113.53 35.558,57.63 93.671,82.93 159.421,65.52 26.934,-7.13 52.344,-20.01 79.809,-30.81 -0.457,-0.76 0.953,1.1 1.871,3.18 29.867,67.55 104.752,86.55 165.682,54.25 29.9,-15.86 53.25,-38.3 61.47,-72.83 2.04,-8.54 7.45,-6.82 13.26,-5.73 41.04,7.65 81.89,16.7 123.2,22.41 39.75,5.5 79.96,7.62 119.99,10.93 5.61,0.46 11.35,-0.75 17.65,-1.24 0.77,1.64 1.78,3.34 2.39,5.18 19.14,57.1 58.96,89.88 117.79,100.45 0.95,0.17 1.73,1.36 2.59,2.08 8.2,0 16.41,0 24.61,0" /><path
         id="path16"
         style="fill:#4c88cf;fill-opacity:1;fill-rule:nonzero;stroke:none"
         d="m 7135.62,308.281 c -75.79,0 -151.57,0 -228.94,0 0,5.891 0,10.668 0,15.438 0,159.16 0.01,318.332 -0.05,477.492 0,6.961 -0.07,13.98 -1.03,20.84 -8.34,59.871 -50.1,77.461 -101.44,73.66 -42.84,-3.18 -75.91,-24.332 -100.61,-58.723 -3.69,-5.129 -5.41,-12.797 -5.43,-19.289 -0.28,-164.488 -0.23,-328.988 -0.23,-493.488 0,-4.813 0,-9.629 0,-15.18 -76.1,0 -150.93,0 -227.24,0 0,5.141 0,9.93 0,14.699 0,158.34 0.35,316.692 -0.47,475.032 -0.1,18.379 -3.89,37.879 -10.89,54.828 -12.78,30.922 -40.97,41.012 -72.04,42.449 -48.07,2.211 -87.19,-16.258 -115.95,-54.937 -4.48,-6.032 -7.43,-14.782 -7.45,-22.274 -0.41,-164.906 -0.31,-329.808 -0.31,-494.719 0,-4.82 0,-9.629 0,-15.129 -77.04,0 -152.75,0 -229.36,0 -5.48,254.469 9.13,509.149 -14.15,764.54 5.18,0.25 9.1,0.62 13.03,0.62 59.89,0.04 119.79,-0.14 179.67,0.21 9.36,0.06 13.58,-1.89 14.98,-12.27 3.42,-25.34 8.5,-50.46 13.03,-76.26 15.07,15.42 28.3,31.06 43.63,44.24 57.2,49.16 125.3,65.57 198.96,63.16 51.32,-1.67 99.55,-14.6 137.98,-50.12 19.85,-18.35 35.2,-41.57 53.01,-63.112 4.49,5.492 10.66,13.41 17.21,21.012 46.13,53.58 105.27,81.89 174.83,90.12 40.77,4.82 81.14,3.44 120.47,-8.87 74.19,-23.23 116.38,-76.45 135.68,-149.352 5.74,-21.628 7.39,-44.32 10.98,-66.507 0.5,-3.09 1.41,-6.121 2.13,-9.192 0,-182.98 0,-365.949 0,-548.918" /><path
         id="path18"
         style="fill:#5cc135;fill-opacity:1;fill-rule:nonzero;stroke:none"
         d="m 1967.03,1233.15 c 0,-241.15 0,-481.24 0,-722.709 65.63,1.528 131.01,-5.519 194.82,12.539 56.26,15.93 96.3,50.758 119.72,104.622 17.9,41.16 26.94,84.597 28.62,128.918 2.52,66.718 3.48,133.582 2.29,200.339 -0.91,50.851 -8.04,101.301 -26.62,149.351 -23.37,60.4 -65.53,100.65 -128.95,115.49 -27.33,6.39 -55.72,9.53 -83.8,11.01 -35.05,1.84 -70.27,0.44 -106.08,0.44 z m -234.62,202.06 c 2.45,0.2 4.05,0.44 5.64,0.44 127.97,-0.11 255.95,0.76 383.9,-0.79 62.86,-0.76 124.87,-10.6 184.48,-31.99 99.7,-35.78 166.42,-104.65 203.49,-203.2 23.44,-62.31 34.59,-127.19 39.31,-193.22 6.41,-89.641 6.41,-179.36 0,-268.989 -4.52,-63.141 -15.11,-125.191 -36.35,-185.172 -42.41,-119.82 -126.16,-193.48 -248.77,-224.129 -53.95,-13.488 -108.86,-19.621 -164.35,-19.789 -117.72,-0.34 -235.44,-0.101 -353.15,-0.101 -4.47,0 -8.93,0 -14.2,0 0,375.851 0,750.89 0,1126.94" /><path
         id="path20"
         style="fill:#4c88cf;fill-opacity:1;fill-rule:nonzero;stroke:none"
         d="m 4491.55,714.449 c 0,26.25 -2.2,52.731 0.57,78.68 3.13,29.141 -9.77,48.441 -30.42,65.199 -6.04,4.91 -12.15,9.832 -18.7,13.992 -64.58,40.942 -170.14,38.879 -196,-72.672 -13.75,-59.328 -12.48,-119.757 0.8,-179.187 9.98,-44.699 36.29,-76.563 83.35,-84.949 63.03,-11.231 114.52,10.078 153.78,60.359 3.89,4.981 6.21,12.508 6.32,18.918 0.62,33.211 0.29,66.43 0.3,99.66 z M 4022.52,307.82 c 74.36,0 145.24,0 217.09,0 1.07,-10.019 2.06,-20.031 3.21,-30.019 5.75,-50 31.64,-78.699 81.09,-88.59 31.39,-6.27 62.83,-4.949 93.76,3.34 40.24,10.789 62.37,39.078 68.5,78.5 4.44,28.551 4.1,57.89 5.25,86.898 0.67,17.071 0.13,34.199 0.13,53.742 -8.51,-7.703 -15.11,-14.121 -22.16,-20.011 -41.52,-34.649 -90.35,-50.719 -143.4,-55.032 -57.64,-4.66 -114.07,0.954 -166.74,26.582 -68.45,33.309 -106.5,91.34 -127.69,162.149 -12.52,41.832 -18.27,84.762 -20.26,128.34 -2.66,58.633 -2.98,117.191 5.37,175.41 9.27,64.601 28.5,125.473 70.96,176.821 42.54,51.46 98.67,77.12 163.8,84.97 50.3,6.07 99.81,2.69 147.85,-14.68 41.15,-14.88 74.92,-40.07 102.53,-73.81 3.27,-4.008 6.61,-7.95 11.64,-13.989 5.5,29.849 10.5,57.039 15.64,84.919 67.86,0 135.3,0 204.21,0 -1.17,-23.85 -2.14,-47.06 -3.49,-70.23 -2.16,-36.81 -6.31,-73.579 -6.57,-110.38 -1.34,-187.84 -1.77,-375.699 -2.38,-563.539 -0.12,-41.133 -3.12,-81.883 -13.89,-121.742 C 4679.74,106.762 4613.29,45.5391 4514.31,18.0781 4446.76,-0.648438 4377.74,-2.82813 4308.23,2.58984 c -53.99,4.19922 -106.3,14.87106 -154.7,40.19146 -72.69,38.0195 -113.22,98.9297 -124.45,179.3597 -3.89,27.82 -4.4,56.121 -6.56,85.679" /><path
         id="path22"
         style="fill:#4c88cf;fill-opacity:1;fill-rule:nonzero;stroke:none"
         d="m 5707.2,672.289 c -49.05,-7.75 -95.71,-13.648 -141.72,-22.769 -52.22,-10.36 -84.36,-35.879 -82.15,-96.43 1.42,-38.762 21.77,-67.36 59.92,-74.578 61.55,-11.653 114.84,6.347 159.23,50.25 3.18,3.148 4.46,9.437 4.52,14.289 0.38,33.578 0.2,67.168 0.2,100.75 0,8.898 0,17.808 0,28.488 z m -206.9,148.832 c -72.09,0 -142.92,0 -217.47,0 2.5,25.238 3.05,50.149 7.69,74.27 18.21,94.847 78.54,151.049 168.48,178.289 65.99,19.99 133.71,22.54 202.06,17.99 41.47,-2.76 82.18,-9.04 121.43,-23.07 85.69,-30.61 132.46,-93.248 146.32,-181.291 4.82,-30.61 6.69,-61.918 7.02,-92.938 1,-92.269 -0.96,-184.59 1.2,-276.832 1.54,-65.027 7.94,-129.949 12.12,-194.93 0.27,-4.07 0.03,-8.168 0.03,-13.3 -67.86,0 -135.67,0 -204.83,0 -4.55,24.332 -9.19,49.132 -14.21,75.98 -8.78,-7.769 -16.16,-14.457 -23.7,-20.949 -51.83,-44.621 -112.57,-67.238 -180.11,-73.551 -44.13,-4.129 -87.6,-1.699 -130.04,11.691 -80.13,25.29 -122.53,82.739 -136.22,163.149 -7.69,45.152 -7.44,90.711 3.01,135.531 16.6,71.141 63.74,115.352 128.98,142.82 51.43,21.649 105.84,31.122 160.58,39.34 48.57,7.289 97.09,14.981 145.64,22.399 6.15,0.941 9.69,2.742 8.33,10.281 -1.96,10.852 -2.08,22.039 -4.15,32.859 -7.58,39.461 -29.49,62.172 -69.33,67.36 -21.2,2.75 -43.55,2.633 -64.62,-0.809 -40.64,-6.64 -64.22,-36.762 -67.37,-80.808 -0.3,-4.051 -0.51,-8.114 -0.84,-13.481" /><path
         id="path24"
         style="fill:#5cc135;fill-opacity:1;fill-rule:nonzero;stroke:none"
         d="m 3035.34,309.102 c 0,188.296 0,376.019 0,564.777 -38.95,0 -76.92,0 -115.85,0 0,66.82 0,132.611 0,200.041 37.71,0 75.96,0 115.69,0 0,6.41 -0.1,11.19 0.01,15.98 1.36,56.94 0.27,114.08 4.83,170.77 4.67,57.98 25.1,111.03 67.81,153.04 35.44,34.86 79.19,53.28 127.33,62 63.17,11.45 126.35,11.84 189.12,-2.9 23.16,-5.45 23.02,-6.06 23.02,-29.89 0,-50.45 0,-100.91 0,-151.36 0,-4.38 0,-8.75 0,-12.57 -23.28,2.49 -45.09,5.91 -67,6.82 -15.83,0.66 -32.07,-0.53 -47.65,-3.45 -35.15,-6.59 -59.06,-28.38 -62.75,-63.61 -4.98,-47.42 -4.65,-95.4 -6.64,-144.33 58.07,0 112.9,0 168.49,0 0,-66.94 0,-132.748 0,-199.94 -55.43,0 -110.57,0 -166.6,0 0,-189.101 0,-376.832 0,-565.378 -76.61,0 -152.3,0 -229.81,0" /><path
         id="path26"
         style="fill:#5cc135;fill-opacity:1;fill-rule:nonzero;stroke:none"
         d="m 3460.84,1074.31 c 38.55,0 76.18,0 115.23,0 0.24,5.43 0.53,10.14 0.64,14.85 1.43,57.36 0.31,114.92 4.93,172.01 4.69,57.99 25.27,111 68.09,152.9 35.2,34.43 78.57,52.61 126.26,61.52 60.69,11.35 121.4,11.11 182.03,-0.62 3.61,-0.7 7.18,-1.68 10.72,-2.68 20.11,-5.68 20.11,-5.7 20.11,-26.18 0,-52.1 0,-104.19 0,-156.29 0,-3.64 0,-7.29 0,-12.06 -13.8,2.27 -26.49,4.87 -39.32,6.38 -28.64,3.36 -57.34,4.07 -85.33,-4.29 -38.12,-11.39 -53.81,-41.13 -55.89,-77.28 -2.42,-42.06 -0.56,-84.36 -0.56,-128.12 54.88,0 109.98,0 165.69,0 0,-67.04 0,-132.528 0,-199.481 -55.09,0 -110.16,0 -166.6,0 0,-189.449 0,-377.449 0,-566.078 -77.09,0 -152.79,0 -229.92,0 0,188.23 0,376.25 0,565.308 -39.38,0 -77.35,0 -116.08,0 0,66.84 0,132.641 0,200.111" /><path
         id="path28"
         style="fill:#4c88cf;fill-opacity:1;fill-rule:nonzero;stroke:none"
         d="m 4809.04,1073.42 c 5.44,0.32 9.02,0.72 12.6,0.72 60.3,0.04 120.6,-0.13 180.89,0.21 9.07,0.05 12.69,-2.28 14.05,-11.89 3.48,-24.56 8.51,-48.89 13.17,-74.71 11.11,12.211 20.77,23.64 31.29,34.24 50.16,50.55 111.41,73.18 182.16,71.54 7.02,-0.17 12.46,-0.28 12.4,-10.28 -0.37,-68.09 -0.2,-136.191 -0.24,-204.27 0,-1.949 -0.44,-3.921 -0.86,-7.351 -14.67,0 -28.9,0.25 -43.12,-0.051 -35.11,-0.75 -69.66,-5.379 -101.31,-21.398 -15.55,-7.871 -29.89,-18.41 -44.06,-28.719 -10.03,-7.289 -13.95,-17.41 -13.9,-30.781 0.52,-155.45 0.33,-310.91 0.33,-466.36 0,-4.832 0,-9.66 0,-15.261 -76.9,0 -152.59,0 -229.36,0 -5.42,254.48 9.05,509.402 -14.04,764.361" /><path
         id="path30"
         style="fill:#5cc135;fill-opacity:1;fill-rule:nonzero;stroke:none"
         d="m 2634.62,309.102 c 0,254.957 0,509.378 0,764.468 76.37,0 152.06,0 228.52,0 0,-254.761 0,-509.199 0,-764.468 -76.11,0 -152.06,0 -228.52,0" /><path
         id="path32"
         style="fill:#5cc135;fill-opacity:1;fill-rule:nonzero;stroke:none"
         d="m 2629.35,1423.92 c 79.51,0 158.85,0 239.09,0 0,-80.32 0,-160.37 0,-241.1 -79.52,0 -158.86,0 -239.09,0 0,80.11 0,160.19 0,241.1" /><path
         id="path34"
         style="fill:#62c332;fill-opacity:1;fill-rule:nonzero;stroke:none"
         d="m 400.508,584.961 c 0.328,8.769 -7.656,17.777 -16.262,18.328 -8.394,0.531 -17.582,-7.848 -17.93,-16.348 -0.414,-10.101 5.938,-17.191 15.875,-17.73 8.907,-0.492 17.997,7.34 18.317,15.75 z m 90.691,-10.813 c 11.602,0.172 18.039,6.821 17.91,18.532 -0.105,10.039 -8.949,18.511 -18.98,18.16 -9.574,-0.32 -17.816,-8.84 -17.777,-18.391 0.035,-10.039 8.691,-18.437 18.847,-18.301 z m 342.883,667.902 c 0.215,12.16 -7.566,20.67 -19.148,20.94 -9.258,0.22 -20.059,-10.47 -19.961,-19.75 0.125,-11.13 8.062,-19 19.527,-19.35 12.406,-0.38 19.359,6.07 19.582,18.16 z m -160.191,272.58 c 0.086,11.19 -10.192,21.73 -20.903,21.42 -10.41,-0.29 -18.547,-9.3 -18.515,-20.5 0.031,-11.54 7.754,-20.24 18.238,-20.55 10.187,-0.3 21.102,9.81 21.18,19.63 z M 826.738,799.078 c -0.195,13.25 -8.355,21.344 -21.343,21.184 -12.891,-0.172 -21.051,-8.782 -20.68,-21.84 0.363,-12.961 8.566,-20.442 22.086,-20.152 12.847,0.261 20.121,7.859 19.937,20.808 z M 681.473,728.102 c 0.218,11.679 -9.61,22.628 -20.668,23 -13.032,0.449 -23.598,-9.762 -23.688,-22.872 -0.082,-13.039 8.067,-21.16 21.504,-21.41 14.176,-0.269 22.594,7.571 22.852,21.282 z M 664.305,1790.63 c -0.086,13.48 -9.844,23.94 -22.418,24.02 -14.121,0.1 -24.434,-9.7 -24.5,-23.3 -0.059,-12.66 11.676,-25.3 23.465,-25.28 13.527,0.04 23.546,10.53 23.453,24.56 z M 255.48,578.281 c -0.14,-13.371 9.485,-23.492 22.704,-23.89 13.3,-0.391 25.859,11.148 26.16,24.058 0.269,11.391 -12.602,24.141 -24.821,24.59 -11.785,0.441 -23.906,-12.051 -24.043,-24.758 z M 1518.01,2309.32 c 0.1,-13.59 8.27,-22.3 20.52,-21.88 12.82,0.44 23.67,13.81 23.84,29.4 0.15,13.2 -8.28,22.29 -20.68,22.27 -14.25,-0.01 -23.81,-12.04 -23.68,-29.79 z M 695.938,1291.6 c 0.031,-16.75 11.902,-28.39 28.703,-28.14 14.422,0.21 27.664,13.87 27.918,28.81 0.261,15.55 -12.946,27.95 -29.598,27.79 -16.008,-0.15 -27.059,-11.79 -27.023,-28.46 z M 607.363,675.379 c -0.265,14.82 -14.91,29.019 -29.652,28.75 -15.281,-0.258 -29.484,-15.328 -28.996,-30.738 0.445,-14.02 14.824,-27.7 29.168,-27.77 15.715,-0.07 29.762,14.109 29.48,29.758 z m 167.66,894.211 c -0.035,17.46 -11.656,28.64 -29.668,28.56 -15.859,-0.08 -29.707,-14.22 -29.371,-29.99 0.332,-15.48 14.786,-29.13 30.696,-29 16.668,0.13 28.379,12.7 28.343,30.43 z m -111.07,-161.05 c 0.008,-18.4 11.438,-29.68 29.895,-29.5 15.828,0.15 29.535,14.27 29.203,30.09 -0.324,15.35 -13.824,28.8 -29.098,28.99 -17.984,0.21 -30.008,-11.64 -30,-29.58 z M 168.738,633.238 c -17.625,0.172 -31.304,-13.226 -31.293,-30.636 0.008,-16.372 14.325,-30.661 30.688,-30.653 16.402,0.02 30.676,14.281 30.656,30.653 -0.019,17.019 -13.215,30.476 -30.051,30.636 z m 561.676,283.774 c -0.094,-17.532 13.457,-32.242 29.742,-32.313 17.758,-0.07 32.055,14.242 31.953,31.992 -0.097,17.25 -14.031,31.457 -30.855,31.469 -16.801,0.012 -30.754,-14.082 -30.84,-31.148 z m -58.828,738.228 c -0.086,19.85 -13.898,34.18 -32.563,33.8 -17.128,-0.36 -33.648,-17.08 -33.789,-34.2 -0.156,-18.4 16.137,-35.18 34.461,-34.17 15.555,0.86 33.52,12.27 31.891,34.57 z m 194.613,-196.56 c 0.071,22.37 -17.636,40.81 -38.793,40.41 -20.883,-0.4 -37.836,-17.91 -37.711,-38.95 0.133,-21.72 17.18,-38.94 38.774,-39.17 21.793,-0.22 37.664,15.63 37.73,37.71 z M 595.09,1937.15 c -0.012,-22.83 15.562,-38.67 38.055,-38.71 20.671,-0.04 38.285,17.67 38.097,38.3 -0.195,21.81 -18.371,40.54 -39.308,40.49 -21.637,-0.06 -36.832,-16.59 -36.844,-40.08 z m 162.422,-812.13 c 0.09,-23.53 17.715,-41.36 40.906,-41.37 21.414,-0.01 37.625,15.11 37.883,35.36 0.285,21.8 -20.981,41.3 -44.91,41.19 -20.645,-0.1 -33.957,-13.92 -33.879,-35.18 z m 132.301,1030.8 c 7.281,19 8.902,36.22 0.371,52.78 -15.746,30.57 -49.243,45.93 -82.68,38.89 -53.59,-11.29 -65.418,-67.42 -45.02,-108.13 4.028,-8.03 11.196,-14.66 22.188,-10.67 9.363,3.39 13.746,12.74 11.41,24.28 -1.297,6.41 -3.289,12.75 -3.797,19.22 -1.281,16.17 4.246,27.15 15.254,32.04 15.625,6.94 27.617,4.13 40.031,-8.23 13.172,-13.11 26.907,-25.64 42.243,-40.18 z m 65.082,-521.78 c 10.558,-18.21 28.3,-27.3 46.705,-34.1 32.62,-12.05 65.65,-23.11 98.96,-33.08 11.41,-3.41 18.54,-6.78 16.63,-20.04 -0.55,-3.83 1.01,-7.96 1.51,-11.37 -40.01,-29.23 -54.99,-71.93 -65.04,-116.78 -4.54,-20.23 -6.13,-41.22 -7.75,-61.97 -0.71,-9.02 -3.43,-11.95 -12.4,-12.01 -31.47,-0.22 -62.061,-5.42 -90.041,-20.66 -6.996,-3.81 -13.516,-9.54 -18.344,-15.86 -2.504,-3.27 -2.398,-10.54 -0.418,-14.46 1.117,-2.22 9.09,-3.02 12.852,-1.56 93.611,36.36 175.691,14.49 249.751,-48.76 51.85,-44.29 81.13,-102.02 98.86,-166.56 0.6,-2.17 0.08,-4.65 0.08,-7.15 -17.02,8.13 -33.65,15.78 -49.89,24.17 -2.28,1.17 -3.23,5.86 -3.87,9.11 -2.88,14.4 -5.21,28.9 -8.22,43.26 -0.81,3.91 -2.62,8.13 -5.28,10.96 -2.47,2.6 -6.71,3.54 -10.16,5.21 -1.04,-2.86 -2.66,-5.65 -3.05,-8.6 -3.43,-26.33 -5.15,-53 -10.42,-78.95 -3.92,-19.34 -12.35,-37.75 -18.78,-56.57 -1.34,0.21 -2.69,0.42 -4.04,0.63 -0.91,5.22 -1.62,10.48 -2.76,15.65 -14.19,64.72 -51.75,112.2 -108.06,145.55 -27.57,16.33 -55.95,31.22 -87.716,37.59 -20.09,4.04 -40.652,7.58 -59.992,-3.06 -4.742,-2.6 -8.246,-7.45 -14.981,-13.75 21.938,-5.17 39.629,-9.63 57.457,-13.46 40.707,-8.77 75.062,-30.17 107.162,-55.23 5.49,-4.3 7.01,-15.16 8.16,-23.31 7.94,-56 14.51,-112.22 10.51,-168.892 -5.3,-75.019 -26.33,-145.558 -63.17,-211.277 -27.185,-48.492 -58.084,-94.172 -99.556,-131.871 -3.262,-2.961 -6.614,-5.828 -7.465,-6.57 -16.629,15.171 -32.121,29.66 -48.047,43.64 -4.859,4.27 -10.664,7.668 -16.477,10.602 -8.835,4.449 -17.687,4.617 -24.265,-4.121 -7,-9.27 -3.508,-17.782 3.289,-25.45 13.293,-15.031 27.242,-29.519 39.953,-45.019 25.633,-31.281 35.574,-68.242 39.121,-107.942 4.512,-50.539 -10.195,-94.589 -40.484,-134.308 -1.93,-2.531 -3.133,-5.621 -4.035,-7.262 31.671,-20.14 62.808,-39.949 97.011,-61.699 -20.058,-14.781 -36.511,-27.449 -53.73,-38.992 -2.598,-1.739 -10.09,0.34 -13,3.109 -16.621,15.774 -32.363,32.473 -48.809,48.434 -5.929,5.758 -15.105,12.008 -21.187,5.207 -3.051,-3.41 0.738,-16.797 5.367,-22.457 11.102,-13.59 24.543,-25.274 37,-37.75 3.125,-3.133 6.09,-6.422 11.309,-11.953 -17.614,-4.098 -32.762,-8.539 -48.227,-11.039 -44.066,-7.129 -88.316,-6.641 -131.438,4.808 -18.593,4.942 -35.683,15.813 -53.05,24.774 -2.332,1.199 -4.262,7.937 -3.047,10.558 17.887,38.641 25.5,79.75 26.281,121.66 1.117,60.27 -13.035,117.102 -48.664,166.789 -6.285,8.77 -17.184,14.77 -26.934,20.332 -8.882,5.071 -17.41,2.149 -22.742,-5.562 13.403,-31.207 27.715,-61.149 39.125,-92.149 C 616,418.539 616.379,422.379 591.84,414.289 509.754,387.27 426.367,385.941 342.063,402.762 279.191,415.301 221.77,439.25 170.344,478.109 105.75,526.922 67.8516,591.801 51.1719,670 c -4.2149,19.762 -7.2071,39.781 -10.7617,59.672 0.9804,0.488 1.9609,0.976 2.9492,1.469 7.2656,-5.7 14.457,-11.512 21.8203,-17.082 56.1563,-42.52 119.2073,-68.418 189.2183,-75.95 160.606,-17.281 285.106,46.86 378.887,173.813 45.528,61.629 69.692,132.949 77.949,209.498 5.977,55.41 -2.699,109.34 -13.918,163.15 -17.722,85.06 -50.062,165.21 -82.16,245.48 -30.457,76.15 -57.746,153.47 -72.57,234.36 -17.242,94.06 -18.617,187.96 8.707,280.88 18.746,63.74 55.352,115.55 104.43,159.28 2.746,2.45 5.59,4.81 8.351,7.24 2.731,2.41 5.41,4.87 9.129,8.21 3.524,-7.22 5.938,-14.14 9.934,-19.97 9.215,-13.44 18.492,-26.96 29.09,-39.28 8.925,-10.39 19.16,-11.14 26.984,-4.43 7.652,6.55 8.859,17.69 0.992,27.73 -20.492,26.16 -33.086,55.86 -37.859,88.27 -6.598,44.77 -0.438,86.62 34.101,120.36 30.785,30.06 67.012,31.66 105.145,20.18 45.238,-13.62 79.426,-43.04 108.156,-79.57 22.445,-28.55 45.109,-56.92 68.674,-86.62 9.31,10.35 5.27,22.65 3.72,33.85 -1.61,11.6 -5.38,22.91 -8.84,36.88 26.9,8.56 52.85,18.94 79.76,24.98 66.98,15.04 134.19,29.31 201.76,41.44 32.07,5.75 65.25,5.02 97.73,8.91 18.92,2.27 37.73,6.93 55.96,12.57 5.63,1.74 11.07,9.55 13.36,15.77 12.52,34.05 33.2,60.38 67.97,73.06 49.43,18.02 99,-8.81 110.88,-60.16 2.08,-9 -0.44,-19.15 -1.31,-28.73 -1.13,-12.48 -3.06,-24.88 -3.85,-37.37 -0.16,-2.44 3.25,-7.25 5.21,-7.36 23.31,-1.27 38.71,-16.75 54.41,-30.7 46.91,-41.67 74.88,-95.86 97.92,-152.88 23.3,-57.64 35.28,-117.69 32.65,-179.95 -3.59,-85.25 -40.5,-150.59 -117.87,-190.47 -12.01,-6.19 -24.33,-11.82 -36.69,-17.32 -11.58,-5.15 -18.5,-2.54 -24.28,8.29 -19.5,36.52 -38.81,73.15 -58.73,109.44 -4.46,8.12 -10.1,16.23 -17.01,22.24 -14.35,12.48 -25.9,8.64 -33.22,-8.86 -14.56,-34.76 -29.48,-69.37 -44.34,-104 -1.4,-3.27 -3.38,-6.3 -6.11,-11.29 -2.97,5.55 -4.98,9.42 -7.09,13.23 -15.05,27.26 -28.76,55.39 -45.62,81.48 -13.24,20.5 -30.26,38.59 -45.87,57.53 -7.75,9.41 -15.38,3.27 -20.94,-2.34 -13.53,-13.68 -26.58,-27.89 -38.98,-42.61 -20.06,-23.79 -39.41,-48.17 -59.12,-72.26 -1.21,-1.49 -2.9,-2.58 -5.26,-4.65 -10.99,17.14 -21,33.96 -32.18,49.95 -23.95,34.22 -48.81,67.79 -72.59,102.12 -6.87,9.91 -12.01,8.99 -20.54,2.39 -33.67,-26.1 -67.8,-51.6 -101.79,-77.28 -3.24,-2.46 -6.73,-4.6 -12.19,-8.31 -4.12,17.72 -8.1,34.1 -11.7,50.57 -7.15,32.75 -14.431,65.48 -20.911,98.37 -1.938,9.83 -6.77,12.11 -14.235,7.54 -14.574,-8.93 -29.086,-18.16 -42.609,-28.58 -29.203,-22.49 -57.758,-45.83 -86.609,-68.77 -1.219,-0.97 -2.817,-1.48 -5.739,-2.96 -7.961,13.97 -15.714,27.76 -23.66,41.44 -4.117,7.08 -8.394,14.07 -12.914,20.9 -5.519,8.33 -13.328,12.69 -23.176,9.32 -10.554,-3.62 -10.902,-13.47 -8.691,-21.7 3.375,-12.55 8.637,-24.64 13.75,-36.66 4.801,-11.27 10.445,-22.18 15.715,-33.25 3.058,-43.92 8.051,-87.81 8.523,-131.75 0.348,-31.76 14.102,-43.14 43.949,-48.11 33.188,-5.52 65.293,-17.46 97.872,-26.6" /><path
         id="path36"
         style="fill:#69b0e3;fill-opacity:1;fill-rule:nonzero;stroke:none"
         d="m 385.137,1410.31 c 20.148,26.1 39.816,49.24 56.808,74.2 19.774,29.05 21.219,28.07 -6.504,54.64 -29.011,27.8 -58.988,54.6 -88.503,81.88 -4.196,3.88 -8.18,7.99 -13.18,12.89 19.211,15.26 38.027,30.17 56.816,45.13 12.5,9.95 25.211,19.68 37.227,30.19 2.617,2.3 4.621,8.22 3.535,11.28 -3.395,9.55 -7.711,18.95 -12.91,27.67 -20.34,34.09 -41.16,67.9 -62.711,103.29 13.199,5.63 25.109,10.81 37.101,15.79 17.727,7.36 35.379,14.93 53.321,21.74 10.707,4.06 12.078,11.19 8.633,20.54 -11.895,32.24 -23.887,64.44 -35.918,96.64 -3.293,8.8 -6.852,17.52 -11,28.09 48.253,9.95 96.003,19.8 146.347,30.18 -3.117,-5.19 -4.773,-8.18 -6.633,-11.03 -34.824,-53.27 -52.011,-112.85 -60.921,-174.99 -16.207,-113.03 -1.594,-223.49 34.16,-330.88 26.761,-80.37 58.16,-159.2 87.5,-238.7 24.75,-67.08 43.504,-135.68 52,-206.82 C 680.82,930.23 568.891,727.18 358.484,689.77 265.32,673.211 179.875,695.699 101,749.531 c 32.43,16.59 63.754,32.61 89.77,45.93 17.535,-14.992 34.918,-30 52.48,-44.781 5.297,-4.461 10.695,-9.059 16.73,-12.328 19.688,-10.661 26.028,-9.102 36.879,11.089 9.868,18.368 18.204,37.571 27.204,56.387 1.386,2.902 2.714,5.832 4.593,9.891 14.735,-9.199 28.754,-18.289 43.114,-26.828 10.906,-6.461 22.363,-11.993 33.332,-18.36 7.828,-4.551 12.281,-1.172 13.035,6.168 1.211,11.692 2.539,23.77 0.898,35.27 -5.43,38.07 -12.176,75.953 -18.359,113.922 -0.321,1.988 -0.039,4.078 -0.039,9.168 13.176,0 26.476,-0.09 39.773,0.031 19.688,0.18 39.375,0.512 59.063,0.769 3.281,0.039 6.625,-0.339 9.828,0.172 10.672,1.68 23.262,0.438 28.75,12.547 5.566,12.281 -2.817,21.07 -10.227,29.332 -26.82,29.94 -53.836,59.69 -80.754,89.53 -1.851,2.06 -3.484,4.3 -4.804,5.95 37.367,23.61 74.152,46.85 113.097,71.45 -47.402,34.07 -91.457,65.74 -136.133,97.84 40.075,30.79 78.825,60.55 120.348,92.45 -54.285,26.42 -104.379,50.81 -154.441,75.18" /><path
         id="path38"
         style="fill:#99d771;fill-opacity:1;fill-rule:nonzero;stroke:none"
         d="m 954.895,1634.04 c -32.579,9.14 -64.684,21.08 -97.872,26.6 -29.847,4.97 -43.601,16.35 -43.949,48.11 -0.472,43.94 -5.465,87.83 -8.523,131.75 6.84,-11.98 13.676,-23.97 22.129,-38.8 46.765,31.27 92.519,61.85 136.75,91.41 9.351,-49.15 19.078,-100.29 29.078,-152.87 55.312,24.88 103.262,56.36 150.222,92.34 36.39,-57.09 71.75,-112.56 107.13,-168.06 50.38,38.41 87.96,87.85 130.85,135.05 13.13,-23.73 25.88,-45.12 37.02,-67.32 15.99,-31.86 30.46,-64.5 46.34,-96.43 5.47,-11 13.2,-20.88 21.59,-33.89 26.84,53.35 51.8,102.97 77.22,153.49 1.67,-2.15 3.85,-4.3 5.26,-6.88 15.95,-29.12 32.24,-58.08 47.26,-87.68 3.04,-5.98 3.78,-15.71 1.03,-21.57 -10.54,-22.49 -22.5,-44.36 -35.06,-65.8 -2.39,-4.08 -9.93,-7.3 -15.09,-7.29 -96.34,0.19 -192.68,1.5 -288.54,12.47 -89.3,10.22 -177.18,27.29 -262.12,57.53 -10.79,3.83 -21.421,8.18 -31.882,12.85 -16.488,7.37 -25.019,3.1 -28.843,-15.01" /><path
         id="path40"
         style="fill:#69b0e3;fill-opacity:1;fill-rule:nonzero;stroke:none"
         d="m 1313.69,1221.67 c 26.23,-66.1 43.9,-131.79 46.73,-200.94 2.44,-59.25 -0.7,-117.949 -15.76,-175.671 -24.06,-92.2 -74.63,-165.739 -153.06,-220.168 -75.01,-52.063 -155.19,-94.61 -238.784,-130.993 -0.664,-0.289 -1.527,-0.128 -1.878,-0.148 -7.86,22.789 -15.672,45.461 -23.075,66.949 145.697,139.832 208.617,309.473 182.377,511.861 23.52,-42.38 20.21,-91.919 39.39,-138.38 8.2,6.511 17.3,11.851 23.97,19.359 24.28,27.34 41.06,59.021 51.37,94.121 0.57,1.95 1.04,3.95 1.75,5.85 0.26,0.69 1.07,1.19 2.73,2.94 11.55,-7.8 23.67,-15.27 34.99,-23.82 20.29,-15.3 40.27,-31.01 59.96,-47.071 6.13,-4.981 10.23,-3.368 12.21,2.601 2.11,6.379 3.62,13.6 2.86,20.16 -6.63,57.06 -26.12,110.42 -48.68,162.75 -2.94,6.82 -3.38,11.02 1.39,17.22 7.68,9.98 13.79,21.19 21.51,33.38" /><path
         id="path42"
         style="fill:#62c332;fill-opacity:1;fill-rule:nonzero;stroke:none"
         d="m 1568,1261.64 c -17.44,1.36 -34.86,2.37 -52.16,4.43 -2.9,0.35 -5.72,4.94 -7.79,8.08 -7.63,11.6 -14.31,23.87 -22.63,34.92 -3.49,4.65 -10.17,6.92 -17,8.73 10.31,-45.94 26.45,-89.59 18.98,-138.98 -3.29,3.97 -5.75,6.33 -7.5,9.13 -28.54,45.65 -69.55,74.28 -121.2,87.81 -10.02,2.62 -15.51,7.55 -20.31,16.71 -15.4,29.36 -32.13,58.03 -48.35,86.96 -1.75,3.11 -3.57,6.19 -5.4,9.38 79.56,33.94 243.95,-40.2 283.36,-127.17" /><path
         id="path44"
         style="fill:#69b0e3;fill-opacity:1;fill-rule:nonzero;stroke:none"
         d="m 1077.8,1342.92 c -3.64,58.8 21.75,136.81 52.18,162.39 56.4,-71.66 118.99,-139.01 157.94,-224.95 -26.43,0 -51.61,-0.14 -76.79,0.21 -2.84,0.03 -5.9,2.51 -8.44,4.41 -37.32,28.19 -77.79,49.6 -124.89,57.94" /><path
         id="path46"
         style="fill:#62c332;fill-opacity:1;fill-rule:nonzero;stroke:none"
         d="m 930.219,327.25 c 8.426,31.68 16.207,59.031 22.754,86.68 2.129,8.968 0.507,18.789 1.668,28.09 0.461,3.71 2.968,8.781 5.996,10.25 12.871,6.25 26.418,11.082 39.443,17.031 6.96,3.179 10.78,1.258 13.29,-5.403 0.72,-1.898 1.93,-3.617 2.7,-5.519 9.01,-22.258 24.12,-36.207 48.43,-42.25 36.42,-9.059 72.26,-20.52 108.13,-31.66 11.15,-3.469 21.6,-9.207 32.38,-13.918 0.26,-1.34 0.52,-2.672 0.78,-4 -22.6,-11.832 -45.1,-23.84 -67.94,-35.172 -2.15,-1.07 -6.82,1.531 -9.65,3.43 -10.88,7.281 -21.43,15.07 -32.23,22.492 -10.97,7.539 -22.42,13.371 -36.92,8.801 3.48,-25.84 27.5,-32.883 45.74,-50.051 -22.03,-3.762 -41.01,-8.942 -60.2,-9.801 -24.44,-1.102 -49.395,-0.922 -73.438,2.969 -15.324,2.48 -29.39,12.703 -40.933,18.031" /><path
         id="path48"
         style="fill:#62c332;fill-opacity:1;fill-rule:nonzero;stroke:none"
         d="m 1113.44,2293.55 c -26.08,-8.85 -50.22,-16.5 -73.92,-25.31 -12.22,-4.54 -24.05,-10.48 -35.31,-17.06 -6.581,-3.86 -9.362,-2.86 -13.855,2.85 -9.078,11.57 -18.75,22.8 -29.238,33.08 -7.179,7.04 -7.847,13.27 -3.344,21.69 33.395,62.46 104.927,56.24 141.117,9.25 5.41,-7.01 9.16,-15.31 14.55,-24.5" /><path
         id="path50"
         style="fill:#62c332;fill-opacity:1;fill-rule:nonzero;stroke:none"
         d="m 1683.73,2291.75 c 9,27.09 5.44,54.31 -8.18,80.93 19.28,10.77 35.53,3.96 49.93,-6.43 37.75,-27.28 35.1,-77.89 15.85,-109.24 -1.13,-1.83 -7.47,-2.8 -9.42,-1.42 -15.85,11.33 -31.24,23.31 -48.18,36.16" /><path
         id="path52"
         style="fill:#62c332;fill-opacity:1;fill-rule:nonzero;stroke:none"
         d="m 1268.24,1210.48 c -8.53,13.28 -15.86,24.69 -24.95,38.84 16.27,-0.9 29.61,-1.64 45.65,-2.54 -7.64,-13.4 -13.59,-23.82 -20.7,-36.3" /><path
         id="path54"
         style="fill:#5cc135;fill-opacity:1;fill-rule:nonzero;stroke:none"
         d="m 1573.97,1359.35 c -7.51,-8.38 -13.68,-15.27 -20.69,-23.09 -10.44,9.62 -20.04,18.47 -29.64,27.31 0.29,0.76 0.58,1.52 0.87,2.28 16.18,-2.13 32.37,-4.25 49.46,-6.5" /><path
         id="path56"
         style="fill:#257135;fill-opacity:1;fill-rule:nonzero;stroke:none"
         d="m 889.813,2155.82 c -15.336,14.54 -29.071,27.07 -42.243,40.18 -12.414,12.36 -24.406,15.17 -40.031,8.23 -11.008,-4.89 -16.535,-15.87 -15.254,-32.04 0.508,-6.47 2.5,-12.81 3.797,-19.22 2.336,-11.54 -2.047,-20.89 -11.41,-24.28 -10.992,-3.99 -18.16,2.64 -22.188,10.67 -20.398,40.71 -8.57,96.84 45.02,108.13 33.437,7.04 66.934,-8.32 82.68,-38.89 8.531,-16.56 6.91,-33.78 -0.371,-52.78" /><path
         id="path58"
         style="fill:#29873c;fill-opacity:1;fill-rule:nonzero;stroke:none"
         d="m 757.512,1125.02 c -0.078,21.26 13.234,35.08 33.879,35.18 23.929,0.11 45.195,-19.39 44.91,-41.19 -0.258,-20.25 -16.469,-35.37 -37.883,-35.36 -23.191,0.01 -40.816,17.84 -40.906,41.37" /><path
         id="path60"
         style="fill:#29873c;fill-opacity:1;fill-rule:nonzero;stroke:none"
         d="m 595.09,1937.15 c 0.012,23.49 15.207,40.02 36.844,40.08 20.937,0.05 39.113,-18.68 39.308,-40.49 0.188,-20.63 -17.426,-38.34 -38.097,-38.3 -22.493,0.04 -38.067,15.88 -38.055,38.71" /><path
         id="path62"
         style="fill:#29873c;fill-opacity:1;fill-rule:nonzero;stroke:none"
         d="m 866.199,1458.68 c -0.066,-22.08 -15.937,-37.93 -37.73,-37.71 -21.594,0.23 -38.641,17.45 -38.774,39.17 -0.125,21.04 16.828,38.55 37.711,38.95 21.157,0.4 38.864,-18.04 38.793,-40.41" /><path
         id="path64"
         style="fill:#29873c;fill-opacity:1;fill-rule:nonzero;stroke:none"
         d="m 671.586,1655.24 c 1.629,-22.3 -16.336,-33.71 -31.891,-34.57 -18.324,-1.01 -34.617,15.77 -34.461,34.17 0.141,17.12 16.661,33.84 33.789,34.2 18.665,0.38 32.477,-13.95 32.563,-33.8" /><path
         id="path66"
         style="fill:#29873c;fill-opacity:1;fill-rule:nonzero;stroke:none"
         d="m 730.414,917.012 c 0.086,17.066 14.039,31.16 30.84,31.148 16.824,-0.012 30.758,-14.219 30.855,-31.469 0.102,-17.75 -14.195,-32.062 -31.953,-31.992 -16.285,0.071 -29.836,14.781 -29.742,32.313" /><path
         id="path68"
         style="fill:#29873c;fill-opacity:1;fill-rule:nonzero;stroke:none"
         d="m 168.738,633.238 c 16.836,-0.16 30.032,-13.617 30.051,-30.636 0.02,-16.372 -14.254,-30.633 -30.656,-30.653 -16.363,-0.008 -30.68,14.281 -30.688,30.653 -0.011,17.41 13.668,30.808 31.293,30.636" /><path
         id="path70"
         style="fill:#29873c;fill-opacity:1;fill-rule:nonzero;stroke:none"
         d="m 663.953,1408.54 c -0.008,17.94 12.016,29.79 30,29.58 15.274,-0.19 28.774,-13.64 29.098,-28.99 0.332,-15.82 -13.375,-29.94 -29.203,-30.09 -18.457,-0.18 -29.887,11.1 -29.895,29.5" /><path
         id="path72"
         style="fill:#29873c;fill-opacity:1;fill-rule:nonzero;stroke:none"
         d="m 775.023,1569.59 c 0.036,-17.73 -11.675,-30.3 -28.343,-30.43 -15.91,-0.13 -30.364,13.52 -30.696,29 -0.336,15.77 13.512,29.91 29.371,29.99 18.012,0.08 29.633,-11.1 29.668,-28.56" /><path
         id="path74"
         style="fill:#29873c;fill-opacity:1;fill-rule:nonzero;stroke:none"
         d="m 607.363,675.379 c 0.282,-15.649 -13.765,-29.828 -29.48,-29.758 -14.344,0.07 -28.723,13.75 -29.168,27.77 -0.488,15.41 13.715,30.48 28.996,30.738 14.742,0.269 29.387,-13.93 29.652,-28.75" /><path
         id="path76"
         style="fill:#29873c;fill-opacity:1;fill-rule:nonzero;stroke:none"
         d="m 695.938,1291.6 c -0.036,16.67 11.015,28.31 27.023,28.46 16.652,0.16 29.859,-12.24 29.598,-27.79 -0.254,-14.94 -13.496,-28.6 -27.918,-28.81 -16.801,-0.25 -28.672,11.39 -28.703,28.14" /><path
         id="path78"
         style="fill:#257135;fill-opacity:1;fill-rule:nonzero;stroke:none"
         d="m 1518.01,2309.32 c -0.13,17.75 9.43,29.78 23.68,29.79 12.4,0.02 20.83,-9.07 20.68,-22.27 -0.17,-15.59 -11.02,-28.96 -23.84,-29.4 -12.25,-0.42 -20.42,8.29 -20.52,21.88" /><path
         id="path80"
         style="fill:#29873c;fill-opacity:1;fill-rule:nonzero;stroke:none"
         d="m 255.48,578.281 c 0.137,12.707 12.258,25.199 24.043,24.758 12.219,-0.449 25.09,-13.199 24.821,-24.59 -0.301,-12.91 -12.86,-24.449 -26.16,-24.058 -13.219,0.398 -22.844,10.519 -22.704,23.89" /><path
         id="path82"
         style="fill:#29873c;fill-opacity:1;fill-rule:nonzero;stroke:none"
         d="m 664.305,1790.63 c 0.093,-14.03 -9.926,-24.52 -23.453,-24.56 -11.789,-0.02 -23.524,12.62 -23.465,25.28 0.066,13.6 10.379,23.4 24.5,23.3 12.574,-0.08 22.332,-10.54 22.418,-24.02" /><path
         id="path84"
         style="fill:#29873c;fill-opacity:1;fill-rule:nonzero;stroke:none"
         d="m 681.473,728.102 c -0.258,-13.711 -8.676,-21.551 -22.852,-21.282 -13.437,0.25 -21.586,8.371 -21.504,21.41 0.09,13.11 10.656,23.321 23.688,22.872 11.058,-0.372 20.886,-11.321 20.668,-23" /><path
         id="path86"
         style="fill:#29873c;fill-opacity:1;fill-rule:nonzero;stroke:none"
         d="m 826.738,799.078 c 0.184,-12.949 -7.09,-20.547 -19.937,-20.808 -13.52,-0.29 -21.723,7.191 -22.086,20.152 -0.371,13.058 7.789,21.668 20.68,21.84 12.988,0.16 21.148,-7.934 21.343,-21.184" /><path
         id="path88"
         style="fill:#29873c;fill-opacity:1;fill-rule:nonzero;stroke:none"
         d="m 673.891,1514.63 c -0.078,-9.82 -10.993,-19.93 -21.18,-19.63 -10.484,0.31 -18.207,9.01 -18.238,20.55 -0.032,11.2 8.105,20.21 18.515,20.5 10.711,0.31 20.989,-10.23 20.903,-21.42" /><path
         id="path90"
         style="fill:#29873c;fill-opacity:1;fill-rule:nonzero;stroke:none"
         d="m 834.082,1242.05 c -0.223,-12.09 -7.176,-18.54 -19.582,-18.16 -11.465,0.35 -19.402,8.22 -19.527,19.35 -0.098,9.28 10.703,19.97 19.961,19.75 11.582,-0.27 19.363,-8.78 19.148,-20.94" /><path
         id="path92"
         style="fill:#29873c;fill-opacity:1;fill-rule:nonzero;stroke:none"
         d="m 491.199,574.148 c -10.156,-0.136 -18.812,8.262 -18.847,18.301 -0.039,9.551 8.203,18.071 17.777,18.391 10.031,0.351 18.875,-8.121 18.98,-18.16 0.129,-11.711 -6.308,-18.36 -17.91,-18.532" /><path
         id="path94"
         style="fill:#29873c;fill-opacity:1;fill-rule:nonzero;stroke:none"
         d="m 400.508,584.961 c -0.32,-8.41 -9.41,-16.242 -18.317,-15.75 -9.937,0.539 -16.289,7.629 -15.875,17.73 0.348,8.5 9.536,16.879 17.93,16.348 8.606,-0.551 16.59,-9.559 16.262,-18.328" /></g></g></svg>